<svg width="43" height="33" viewBox="0 0 43 33" fill="none" xmlns="http://www.w3.org/2000/svg">
<path fill-rule="evenodd" clip-rule="evenodd" d="M2.6875 16.5C2.6875 16.2348 2.82907 15.9805 3.08108 15.7929C3.33308 15.6054 3.67487 15.5 4.03125 15.5H35.7249L27.2674 9.20804C27.0151 9.02027 26.8733 8.76559 26.8733 8.50004C26.8733 8.23449 27.0151 7.97982 27.2674 7.79204C27.5197 7.60427 27.8619 7.49878 28.2188 7.49878C28.5756 7.49878 28.9178 7.60427 29.1701 7.79204L39.9201 15.792C40.0453 15.8849 40.1446 15.9953 40.2123 16.1168C40.28 16.2383 40.3149 16.3685 40.3149 16.5C40.3149 16.6316 40.28 16.7618 40.2123 16.8833C40.1446 17.0048 40.0453 17.1152 39.9201 17.208L29.1701 25.208C28.9178 25.3958 28.5756 25.5013 28.2188 25.5013C27.8619 25.5013 27.5197 25.3958 27.2674 25.208C27.0151 25.0203 26.8733 24.7656 26.8733 24.5C26.8733 24.2345 27.0151 23.9798 27.2674 23.792L35.7249 17.5H4.03125C3.67487 17.5 3.33308 17.3947 3.08108 17.2071C2.82907 17.0196 2.6875 16.7653 2.6875 16.5Z" fill="white"/>
</svg>
