<svg width="35" height="28" viewBox="0 0 35 28" fill="none" xmlns="http://www.w3.org/2000/svg">
<path d="M1.61561 26.3264C1.27559 25.8912 1.35276 25.2628 1.78796 24.9227L32.8996 0.615657C33.3348 0.275637 33.9633 0.3528 34.3033 0.788006V0.788006C34.6433 1.22321 34.5661 1.85166 34.1309 2.19168L3.01928 26.4988C2.58408 26.8388 1.95563 26.7616 1.61561 26.3264V26.3264Z" fill="black"/>
<path d="M33.3033 26.3264C33.6434 25.8912 33.5662 25.2628 33.131 24.9227L2.01933 0.615657C1.58412 0.275637 0.955679 0.3528 0.615658 0.788006V0.788006C0.275638 1.22321 0.352801 1.85166 0.788008 2.19168L31.8997 26.4988C32.3349 26.8388 32.9633 26.7616 33.3033 26.3264V26.3264Z" fill="black"/>
</svg>
