<svg width="32" height="32" viewBox="0 0 32 32" fill="none" xmlns="http://www.w3.org/2000/svg">
<g clip-path="url(#clip0_418_29)">
<path d="M27 11H5.66667C4.2 11 3.01333 12.2 3.01333 13.6667L3 29.6667C3 31.1333 4.2 32.3333 5.66667 32.3333H27C28.4667 32.3333 29.6667 31.1333 29.6667 29.6667V13.6667C29.6667 12.2 28.4667 11 27 11ZM26.4667 16.6667L17.04 22.56C16.6133 22.8267 16.0533 22.8267 15.6267 22.56L6.2 16.6667C6.0663 16.5916 5.94923 16.4902 5.85585 16.3686C5.76248 16.247 5.69475 16.1077 5.65677 15.9592C5.61878 15.8106 5.61134 15.6559 5.63488 15.5044C5.65841 15.3529 5.71245 15.2078 5.79371 15.0777C5.87497 14.9477 5.98177 14.8355 6.10763 14.748C6.2335 14.6604 6.37583 14.5993 6.52599 14.5684C6.67616 14.5374 6.83104 14.5373 6.98127 14.5679C7.1315 14.5986 7.27395 14.6594 7.4 14.7467L16.3333 20.3333L25.2667 14.7467C25.3927 14.6594 25.5352 14.5986 25.6854 14.5679C25.8356 14.5373 25.9905 14.5374 26.1407 14.5684C26.2908 14.5993 26.4332 14.6604 26.559 14.748C26.6849 14.8355 26.7917 14.9477 26.873 15.0777C26.9542 15.2078 27.0083 15.3529 27.0318 15.5044C27.0553 15.6559 27.0479 15.8106 27.0099 15.9592C26.9719 16.1077 26.9042 16.247 26.8108 16.3686C26.7174 16.4902 26.6004 16.5916 26.4667 16.6667Z" fill="black"/>
</g>
<defs>
<clipPath id="clip0_418_29">
<rect width="32" height="32" fill="white"/>
</clipPath>
</defs>
</svg>
