<svg width="32" height="32" viewBox="0 0 32 32" fill="none" xmlns="http://www.w3.org/2000/svg">
<path d="M16 11.8345C13.7062 11.8345 11.8344 13.7064 11.8344 16.0001C11.8344 18.2939 13.7062 20.1657 16 20.1657C18.2937 20.1657 20.1656 18.2939 20.1656 16.0001C20.1656 13.7064 18.2937 11.8345 16 11.8345ZM28.4937 16.0001C28.4937 14.2751 28.5094 12.5657 28.4125 10.8439C28.3156 8.84385 27.8594 7.06885 26.3969 5.60635C24.9312 4.14072 23.1594 3.6876 21.1594 3.59072C19.4344 3.49385 17.725 3.50947 16.0031 3.50947C14.2781 3.50947 12.5687 3.49385 10.8469 3.59072C8.84687 3.6876 7.07187 4.14385 5.60937 5.60635C4.14375 7.07197 3.69062 8.84385 3.59375 10.8439C3.49687 12.5689 3.5125 14.2782 3.5125 16.0001C3.5125 17.722 3.49687 19.4345 3.59375 21.1564C3.69062 23.1564 4.14687 24.9314 5.60937 26.3939C7.075 27.8595 8.84687 28.3126 10.8469 28.4095C12.5719 28.5064 14.2812 28.4907 16.0031 28.4907C17.7281 28.4907 19.4375 28.5064 21.1594 28.4095C23.1594 28.3126 24.9344 27.8564 26.3969 26.3939C27.8625 24.9282 28.3156 23.1564 28.4125 21.1564C28.5125 19.4345 28.4937 17.7251 28.4937 16.0001ZM16 22.4095C12.4531 22.4095 9.59062 19.547 9.59062 16.0001C9.59062 12.4532 12.4531 9.59072 16 9.59072C19.5469 9.59072 22.4094 12.4532 22.4094 16.0001C22.4094 19.547 19.5469 22.4095 16 22.4095ZM22.6719 10.8251C21.8437 10.8251 21.175 10.1564 21.175 9.32822C21.175 8.5001 21.8437 7.83135 22.6719 7.83135C23.5 7.83135 24.1687 8.5001 24.1687 9.32822C24.169 9.52487 24.1304 9.71963 24.0553 9.90135C23.9802 10.0831 23.8699 10.2482 23.7309 10.3872C23.5918 10.5263 23.4267 10.6365 23.245 10.7117C23.0633 10.7868 22.8685 10.8253 22.6719 10.8251Z" fill="black"/>
</svg>
